<svg width="18" height="18" viewBox="0 0 18 18" fill="none" xmlns="http://www.w3.org/2000/svg">
<g clip-path="url(#clip0_78_2644)">
<path d="M7.39482 13.4999C7.29198 13.4996 7.19031 13.4781 7.09613 13.4368C7.00194 13.3956 6.91725 13.3353 6.84732 13.2599L3.20232 9.38243C3.06607 9.23723 2.99307 9.04384 2.9994 8.84482C3.00573 8.6458 3.09086 8.45744 3.23607 8.32118C3.38128 8.18493 3.57466 8.11194 3.77369 8.11827C3.97271 8.1246 4.16107 8.20973 4.29732 8.35493L7.38732 11.6474L13.6948 4.74743C13.7588 4.66772 13.8385 4.60194 13.9288 4.55413C14.0192 4.50632 14.1184 4.47748 14.2203 4.46939C14.3222 4.4613 14.4247 4.47413 14.5214 4.5071C14.6182 4.54006 14.7072 4.59245 14.783 4.66107C14.8588 4.72968 14.9197 4.81306 14.9621 4.90609C15.0045 4.99912 15.0274 5.09983 15.0295 5.20204C15.0315 5.30424 15.0126 5.40579 14.974 5.50044C14.9354 5.59509 14.8778 5.68084 14.8048 5.75243L7.94982 13.2524C7.88055 13.3292 7.79616 13.3908 7.70194 13.4334C7.60772 13.476 7.50571 13.4986 7.40232 13.4999H7.39482Z" fill="#00B031"/>
</g>
<defs>
<clipPath id="clip0_78_2644">
<rect width="18" height="18" fill="white"/>
</clipPath>
</defs>
</svg>
