<svg width="80" height="80" viewBox="0 0 80 80" fill="none" xmlns="http://www.w3.org/2000/svg">
<path d="M27.9925 35.2387C28.6373 36.1335 29.2881 36.8613 29.9173 37.5651C31.0525 38.8346 31.9828 39.8788 32.4883 41.4751C31.7081 42.0452 31.1981 42.9651 31.1981 44.0043C31.1981 45.2191 31.8958 46.2719 32.9102 46.7897C32.8092 47.0969 32.7528 47.4241 32.7528 47.7647C32.7528 49.1033 33.6008 50.2449 34.7872 50.6905C34.7134 50.9568 34.6708 51.2358 34.6708 51.5252C34.6708 53.2524 36.0759 54.6577 37.8031 54.6577H42.2014C43.9262 54.6577 45.3295 53.2524 45.3295 51.5252C45.3295 51.2362 45.287 50.9574 45.2136 50.6915C46.3995 50.2465 47.2475 49.1043 47.2475 47.7649C47.2475 47.4243 47.1911 47.0971 47.0903 46.7899C48.1047 46.2721 48.8022 45.2193 48.8022 44.0044C48.8022 42.9657 48.2927 42.0462 47.513 41.4758C48.0203 39.8787 48.9502 38.834 50.0847 37.5641C50.7131 36.8607 51.3633 36.1332 52.0066 35.2405C53.8336 32.7138 54.7994 29.7251 54.7994 26.5974C54.7994 18.4371 48.1606 11.7982 40.0003 11.7982C31.84 11.7982 25.2055 18.4371 25.2055 26.5974C25.2055 29.7291 26.1697 32.7179 27.9927 35.239L27.9925 35.2387ZM37.0936 27.9915H35.8677C35.1917 27.9915 34.6417 27.4415 34.6417 26.7655C34.6417 26.0896 35.1917 25.544 35.8677 25.544C36.5436 25.544 37.0936 26.0919 37.0936 26.7655V27.9915ZM39.5936 30.4915H40.4111V40.8718H39.5936V30.4915ZM45.6741 43.3718C46.0145 43.3718 46.3022 43.6615 46.3022 44.0043C46.3022 44.3447 46.0145 44.6322 45.6741 44.6322H34.3263C33.9858 44.6322 33.6981 44.3447 33.6981 44.0043C33.6981 43.6615 33.9858 43.3718 34.3263 43.3718H45.6741ZM44.7473 47.7647C44.7473 48.1052 44.4597 48.3929 44.1192 48.3929H35.8852C35.5423 48.3929 35.2527 48.1052 35.2527 47.7647C35.2527 47.416 35.5364 47.1322 35.8852 47.1322H44.1192C44.4597 47.1322 44.7473 47.4219 44.7473 47.7647ZM42.2014 52.1577H37.8031C37.4603 52.1577 37.1708 51.868 37.1708 51.5252C37.1708 51.1765 37.4544 50.8929 37.8031 50.8929H42.2014C42.5419 50.8929 42.8295 51.1824 42.8295 51.5252C42.8295 51.868 42.5419 52.1577 42.2014 52.1577ZM40.0002 14.298C46.7819 14.298 52.2992 19.8154 52.2992 26.5972C52.2992 29.1955 51.4975 31.6779 49.9794 33.7771C49.4114 34.5652 48.8058 35.2429 48.2202 35.8983C47.0002 37.2638 45.7441 38.6704 45.0816 40.8718H42.9109V30.4915H44.1323C46.1869 30.4915 47.8584 28.8199 47.8584 26.7655C47.8584 24.7112 46.187 23.044 44.1323 23.044C42.0777 23.044 40.4109 24.7135 40.4109 26.7655V27.9915H39.5934V26.7655C39.5934 24.7133 37.922 23.044 35.8675 23.044C33.813 23.044 32.1416 24.7135 32.1416 26.7655C32.1416 28.8176 33.813 30.4915 35.8675 30.4915H37.0934V40.8718H34.9194C34.2586 38.6705 33.0017 37.2641 31.7809 35.8987C31.1948 35.2432 30.5886 34.5652 30.0195 33.7754C28.5056 31.6818 27.7053 29.1994 27.7053 26.5972C27.7053 19.8154 33.2208 14.298 40.0002 14.298ZM42.9111 27.9915V26.7655C42.9111 26.0919 43.4591 25.544 44.1325 25.544C44.8059 25.544 45.3586 26.0919 45.3586 26.7655C45.3586 27.4391 44.8086 27.9915 44.1325 27.9915H42.9111ZM17.3966 26.5972C17.3966 25.9069 17.9562 25.3472 18.6466 25.3472H21.7337C22.4241 25.3472 22.9837 25.9069 22.9837 26.5972C22.9837 27.2876 22.4241 27.8472 21.7337 27.8472H18.6466C17.9562 27.8472 17.3966 27.2876 17.3966 26.5972ZM24.0169 12.3816C23.5286 11.8935 23.5286 11.1021 24.0169 10.614C24.505 10.1257 25.2964 10.1257 25.7845 10.614L27.9683 12.7977C28.4566 13.2858 28.4566 14.0772 27.9683 14.5654C27.7242 14.8094 27.4044 14.9315 27.0844 14.9315C26.7644 14.9315 26.4445 14.8094 26.2005 14.5654L24.0169 12.3816ZM38.7502 8.33084V5.24365C38.7502 4.55334 39.3098 3.99365 40.0002 3.99365C40.6905 3.99365 41.2502 4.55334 41.2502 5.24365V8.33084C41.2502 9.02115 40.6905 9.58084 40.0002 9.58084C39.3098 9.58084 38.7502 9.02115 38.7502 8.33084ZM52.0319 14.5654C51.5438 14.0772 51.5438 13.2858 52.0319 12.7977L54.2156 10.614C54.7039 10.1257 55.4952 10.1257 55.9834 10.614C56.4716 11.1021 56.4716 11.8935 55.9834 12.3816L53.7997 14.5654C53.5556 14.8094 53.2358 14.9315 52.9158 14.9315C52.5958 14.9315 52.2759 14.8094 52.0319 14.5654ZM57.0164 26.5972C57.0164 25.9069 57.5761 25.3472 58.2664 25.3472H61.3536C62.0439 25.3472 62.6036 25.9069 62.6036 26.5972C62.6036 27.2876 62.0439 27.8472 61.3536 27.8472H58.2664C57.5761 27.8472 57.0164 27.2876 57.0164 26.5972ZM73.0611 48.1066C74.6295 46.1908 75.4486 43.4765 75.4486 40.8507C75.4486 36.5858 71.9789 33.1163 67.7141 33.1163C63.4492 33.1163 59.9839 36.586 59.9839 40.8507C59.9839 43.0516 60.6261 45.4087 61.702 47.1557C62.8203 48.9716 64.3909 50.1388 66.2172 50.5488C65.9748 50.7785 65.7484 51.0051 65.5347 51.2191L56.5172 60.2366H45.9706C43.5938 60.2366 41.66 62.1704 41.66 64.5472C41.66 65.1921 41.8036 65.8038 42.0589 66.3535H37.9412C38.1964 65.8038 38.3398 65.1921 38.3398 64.5472C38.3398 62.1704 36.4081 60.2366 34.0336 60.2366H23.4825L14.4652 51.2191C14.2514 51.0052 14.0252 50.7787 13.7828 50.549C15.6105 50.1391 17.1816 48.9716 18.2995 47.1554C19.3742 45.4093 20.0159 43.0524 20.0159 40.8505C20.0159 36.5857 16.5483 33.1161 12.2858 33.1161C8.02328 33.1161 4.55141 36.5858 4.55141 40.8505C4.55141 43.4765 5.37047 46.1912 6.93937 48.1069C4.15297 48.6065 2.03125 51.0465 2.03125 53.9744V74.7566C2.03125 75.4469 2.59094 76.0066 3.28125 76.0066C3.97156 76.0066 4.53125 75.4469 4.53125 74.7566V53.9744C4.53125 52.0651 6.08453 50.5118 7.99391 50.5118C10.2255 50.5118 11.4258 51.7135 12.6964 52.9857L22.447 62.7365H34.0336C35.0295 62.7365 35.8398 63.5487 35.8398 64.5471C35.8398 65.5455 35.0295 66.3533 34.0336 66.3533H21.8708C21.2419 66.3533 20.7416 66.146 20.2966 65.701L12.1687 57.5688C11.6808 57.0805 10.8894 57.0804 10.4011 57.5683C9.91281 58.0563 9.91266 58.8479 10.4006 59.3362L14.5836 63.5215V74.7568C14.5836 75.4471 15.1433 76.0068 15.8336 76.0068C16.5239 76.0068 17.0836 75.4471 17.0836 74.7568V66.0229L18.5286 67.4687C18.7548 67.6949 18.9967 67.8946 19.252 68.0666V74.7568C19.252 75.4471 19.8117 76.0068 20.502 76.0068H59.4975C60.1878 76.0068 60.7475 75.4471 60.7475 74.7568V68.0666C61.003 67.8944 61.2447 67.6949 61.4709 67.4687L62.9159 66.0237V74.7569C62.9159 75.4473 63.4756 76.0069 64.1659 76.0069C64.8562 76.0069 65.4159 75.4473 65.4159 74.7569V63.5237L69.6031 59.3365C70.0912 58.8483 70.0912 58.0569 69.6031 57.5688C69.115 57.0807 68.3236 57.0805 67.8353 57.5688L59.7031 65.701C59.258 66.1462 58.7577 66.3537 58.1289 66.3537H45.9706C44.9722 66.3537 44.16 65.5433 44.16 64.5474C44.16 63.5515 44.9722 62.7368 45.9706 62.7368H57.5527L67.3034 52.9858C68.5742 51.7135 69.7744 50.5119 72.0103 50.5119C73.9172 50.5119 75.4686 52.0652 75.4686 53.9746V74.7568C75.4686 75.4471 76.0283 76.0068 76.7186 76.0068C77.4089 76.0068 77.9686 75.4471 77.9686 74.7568V53.9746C77.9686 51.0455 75.8467 48.6049 73.0609 48.1066H73.0611ZM12.2859 35.616C15.1698 35.616 17.5161 37.9641 17.5161 40.8504C17.5161 43.6979 16.0962 48.2154 12.2859 48.2154C8.67547 48.2154 7.05156 43.9086 7.05156 40.8504C7.05156 37.9641 9.39969 35.616 12.2859 35.616ZM58.1291 68.8533H58.2478V73.5066H21.7523V68.8533H58.1292H58.1291ZM62.4839 40.8504C62.4839 37.9641 64.8302 35.616 67.7141 35.616C70.598 35.616 72.9486 37.9641 72.9486 40.8504C72.9486 43.9085 71.3245 48.2154 67.7141 48.2154C64.1036 48.2154 62.4839 43.9086 62.4839 40.8504Z" fill="#6EB528"/>
</svg>
