<svg width="80" height="80" viewBox="0 0 80 80" fill="none" xmlns="http://www.w3.org/2000/svg">
<path d="M76.25 35C76.25 34.6685 76.1183 34.3505 75.8839 34.1161C75.6495 33.8817 75.3315 33.75 75 33.75H65C64.6685 33.75 64.3505 33.8817 64.1161 34.1161C63.8817 34.3505 63.75 34.6685 63.75 35V76.25H58.75V53.75C58.75 53.4185 58.6183 53.1005 58.3839 52.8661C58.1495 52.6317 57.8315 52.5 57.5 52.5H47.5C47.1685 52.5 46.8505 52.6317 46.6161 52.8661C46.3817 53.1005 46.25 53.4185 46.25 53.75V76.25H41.25V67.5C41.25 67.1685 41.1183 66.8505 40.8839 66.6161C40.6495 66.3817 40.3315 66.25 40 66.25H30C29.6685 66.25 29.3505 66.3817 29.1161 66.6161C28.8817 66.8505 28.75 67.1685 28.75 67.5V76.25H26.25V78.75H78.75V76.25H76.25V35ZM38.75 76.25H31.25V68.75H38.75V76.25ZM56.25 76.25H48.75V55H56.25V76.25ZM73.75 76.25H66.25V36.25H73.75V76.25Z" fill="#6EB528"/>
<path d="M72.8525 15.0951L76.1788 17.0776C76.3732 17.1935 76.5954 17.2545 76.8218 17.254C77.0481 17.2536 77.2701 17.1916 77.464 17.0749C77.658 16.9581 77.8165 16.7908 77.9228 16.591C78.0291 16.3911 78.0791 16.1661 78.0675 15.9401L77.38 2.44005C77.3696 2.23461 77.3086 2.03491 77.2025 1.85867C77.0964 1.68244 76.9484 1.53511 76.7717 1.42977C76.5951 1.32442 76.3951 1.26431 76.1896 1.25476C75.9841 1.24522 75.7794 1.28654 75.5938 1.37505L63.3925 7.20005C63.1885 7.29759 63.0147 7.44865 62.8898 7.63713C62.7648 7.82562 62.6934 8.04447 62.683 8.27037C62.6726 8.49627 62.7237 8.72076 62.8308 8.91992C62.9379 9.11908 63.097 9.28545 63.2913 9.4013L66.5138 11.3213C61.1002 19.826 54.9068 27.8083 48.0138 35.1651L41.2638 28.0476C40.6739 27.417 39.9292 26.9518 39.1037 26.6983C38.2783 26.4448 37.4009 26.4118 36.5588 26.6026L33.07 27.3638L33.1488 24.5613L36.1488 23.6588C37.4162 23.2717 38.4782 22.3972 39.1013 21.2276L42.1013 15.6288C42.2252 15.3977 42.2733 15.1334 42.2388 14.8734C42.2042 14.6134 42.0888 14.3708 41.9088 14.1801L39.3338 11.4538C39.209 11.3218 39.0571 11.2186 38.8884 11.1513C38.7198 11.084 38.5385 11.0543 38.3572 11.0641C38.1759 11.074 37.9989 11.1233 37.8386 11.2085C37.6782 11.2937 37.5384 11.4128 37.4288 11.5576L33.5713 16.6551L31.1325 14.9276C30.5862 14.5443 29.969 14.2739 29.317 14.132C28.6649 13.9902 27.9911 13.9797 27.335 14.1013C28.0338 13.227 28.4207 12.1443 28.4344 11.0251C28.448 9.90584 28.0875 8.8141 27.4101 7.92301C26.7328 7.03193 25.7773 6.39251 24.6952 6.10617C23.6131 5.81983 22.4664 5.90297 21.437 6.3424C20.4075 6.78183 19.5543 7.55239 19.0125 8.53186C18.4708 9.51134 18.2716 10.6437 18.4465 11.7492C18.6214 12.8548 19.1604 13.8703 19.9781 14.6347C20.7957 15.3991 21.8452 15.8686 22.96 15.9688L22.835 16.0263C21.3638 16.7111 20.1549 17.8551 19.39 19.2863L14.7775 27.9113C14.7 28.0561 14.6518 28.2148 14.6357 28.3783C14.6196 28.5418 14.6359 28.7069 14.6836 28.864C14.7313 29.0212 14.8095 29.1675 14.9138 29.2944C15.0181 29.4213 15.1463 29.5265 15.2913 29.6038L18.7788 31.4663C19.0629 31.6181 19.3947 31.6544 19.7049 31.5675C20.0151 31.4806 20.2798 31.2773 20.4438 31L23.3075 26.1601L24.46 33.535C24.6079 34.1792 24.9249 34.7723 25.3785 35.253C25.832 35.7338 26.4055 36.0849 27.04 36.2701L29.29 42.3676L29.0975 49.1875C29.09 49.4753 29.1821 49.7568 29.3581 49.9846C29.5341 50.2123 29.7834 50.3723 30.0638 50.4375L31.2838 50.7213C24.7237 56.0166 17.7596 60.7908 10.455 65.0001L1.875 69.94C1.6848 70.0499 1.52689 70.2079 1.41717 70.3981C1.30744 70.5884 1.24979 70.8042 1.25 71.0238V76.6251C1.24957 76.8447 1.30701 77.0605 1.41654 77.2509C1.52608 77.4413 1.68384 77.5994 1.87393 77.7094C2.06403 77.8194 2.27975 77.8774 2.49938 77.8775C2.71902 77.8776 2.9348 77.8199 3.125 77.7101L14.7613 71.0563C38.4466 57.4825 58.4038 38.2571 72.8525 15.0951ZM21.61 12.7363C21.2742 12.3817 21.0497 11.9364 20.9641 11.4556C20.8786 10.9748 20.9357 10.4794 21.1285 10.0307C21.3213 9.58198 21.6413 9.19955 22.0489 8.93065C22.4566 8.66174 22.9341 8.51813 23.4225 8.51755H23.5C23.9109 8.52893 24.3126 8.64144 24.6696 8.84512C25.0267 9.04881 25.328 9.33738 25.5468 9.68528C25.7657 10.0332 25.8955 10.4297 25.9245 10.8397C25.9536 11.2497 25.8812 11.6606 25.7136 12.0359C25.546 12.4112 25.2884 12.7394 24.9637 12.9915C24.639 13.2435 24.2572 13.4116 23.8521 13.4808C23.4469 13.5501 23.0309 13.5184 22.6409 13.3885C22.2509 13.2587 21.899 13.0346 21.6163 12.7363H21.61ZM28.4713 33.8751C28.3254 33.9203 28.172 33.936 28.02 33.9213C27.7679 33.9154 27.5243 33.8292 27.3246 33.6752C27.125 33.5211 26.9797 33.3074 26.91 33.0651L25.235 22.3263C25.1952 22.0719 25.0778 21.8359 24.8988 21.6508C24.7198 21.4656 24.488 21.3402 24.2351 21.2918C23.9821 21.2434 23.7204 21.2743 23.4857 21.3802C23.251 21.4862 23.0547 21.6621 22.9238 21.8838L18.8963 28.6913L17.5675 27.9813L21.5888 20.4613C22.0962 19.5107 22.8985 18.7506 23.875 18.2951L27.1888 16.7501C27.5886 16.5655 28.0299 16.4891 28.4686 16.5283C28.9073 16.5676 29.328 16.7212 29.6888 16.9738L33.1138 19.4001C33.3787 19.5875 33.7063 19.6646 34.027 19.6149C34.3478 19.5652 34.6367 19.3927 34.8325 19.1338L38.5313 14.2501L39.4725 15.2501L36.895 20.0613C36.7419 20.3502 36.5334 20.606 36.2814 20.8143C36.0294 21.0226 35.7388 21.1791 35.4263 21.2751L31.5638 22.4376C31.3127 22.5135 31.0919 22.6665 30.9326 22.875C30.7733 23.0834 30.6836 23.3366 30.6763 23.5988L30.525 28.8976C30.5195 29.0873 30.5573 29.2759 30.6355 29.4489C30.7137 29.6219 30.8304 29.7748 30.9765 29.896C31.1227 30.0172 31.2945 30.1035 31.479 30.1484C31.6635 30.1933 31.8558 30.1956 32.0413 30.1551L37.1088 29.0501C37.5269 28.9552 37.9627 28.9718 38.3724 29.0982C38.7822 29.2245 39.1516 29.4562 39.4438 29.7701L46.2925 36.9851C45.8363 37.4576 45.385 37.9351 44.9238 38.4013L37.8463 31.7126C37.686 31.561 37.4884 31.4546 37.2737 31.4041C37.059 31.3536 36.8348 31.3609 36.6238 31.4251L28.4713 33.8751ZM37.06 40.0988L35 34.5201L36.6625 34.0201L43.1488 40.1451C40.9821 42.2742 38.7546 44.3417 36.4663 46.3475L37.135 40.6788C37.1559 40.4839 37.1302 40.2868 37.06 40.1038V40.0988ZM29.6488 36.1301L32.5963 35.2401L34.61 40.6838L33.665 48.7076L31.6163 48.2338L31.7875 42.1938C31.7923 42.0345 31.7664 41.8758 31.7113 41.7263L29.6488 36.1301ZM13.515 68.8801L3.75 74.4701V71.7501L11.7025 67.1738C35.1695 53.633 54.9528 34.5373 69.315 11.5638C69.4031 11.4226 69.4622 11.2653 69.4887 11.101C69.5152 10.9367 69.5087 10.7688 69.4694 10.6071C69.4302 10.4454 69.3591 10.2931 69.2602 10.1593C69.1614 10.0254 69.0368 9.91263 68.8938 9.82755L66.5775 8.45255L74.9788 4.44005L75.4513 13.7376L73.0763 12.3213C72.7938 12.1532 72.4564 12.1032 72.1373 12.182C71.8182 12.2609 71.543 12.4623 71.3713 12.7426C57.0957 36.0097 37.2008 55.3154 13.515 68.8851V68.8801Z" fill="#6EB528"/>
<path d="M5.77832 41.4692L13.0383 34.5992L14.7567 36.4151L7.49668 43.2851L5.77832 41.4692Z" fill="#6EB528"/>
<path d="M14.5615 43.48L20.914 37.4687L22.6324 39.2846L16.2799 45.2959L14.5615 43.48Z" fill="#6EB528"/>
</svg>
