<svg width="80" height="80" viewBox="0 0 80 80" fill="none" xmlns="http://www.w3.org/2000/svg">
<g clip-path="url(#clip0_9730_2222)">
<path fill-rule="evenodd" clip-rule="evenodd" d="M35.152 63.3693V53.557C35.152 52.8606 34.5853 52.2939 33.8889 52.2939C33.1916 52.2939 32.6257 52.8606 32.6257 53.557V63.3693C32.6257 64.0666 33.1916 64.6324 33.8889 64.6324C34.5852 64.6325 35.152 64.0666 35.152 63.3693ZM25.9141 53.5572V63.3694C25.9141 64.0668 26.48 64.6325 27.1772 64.6325C27.8744 64.6325 28.4402 64.0666 28.4402 63.3694V53.5572C28.4402 52.8608 27.8744 52.2941 27.1772 52.2941C26.48 52.2939 25.9141 52.8606 25.9141 53.5572Z" fill="#6EB528"/>
<path fill-rule="evenodd" clip-rule="evenodd" d="M22.2709 64.6326H38.7939C39.4912 64.6326 40.057 64.0667 40.057 63.3695C40.057 62.6722 39.4911 62.1064 38.7939 62.1064H22.2709C21.5737 62.1064 21.0078 62.6723 21.0078 63.3695C21.0077 64.0667 21.5736 64.6326 22.2709 64.6326Z" fill="#6EB528"/>
<path fill-rule="evenodd" clip-rule="evenodd" d="M52.0435 52.2937H3.94418C3.23087 52.2937 2.65242 51.716 2.65242 51.0027V12.324C2.65242 11.6107 3.231 11.033 3.94418 11.033H16.3762C17.0734 11.033 17.6393 10.4671 17.6393 9.76993C17.6393 9.07273 17.0734 8.50684 16.3762 8.50684C16.3762 8.50684 8.22287 8.50684 3.94418 8.50684C1.83555 8.5067 0.125977 10.2154 0.125977 12.324V51.0027C0.125977 53.1113 1.83542 54.82 3.94405 54.82H52.0434C52.7407 54.82 53.3065 54.2541 53.3065 53.5569C53.3066 52.8604 52.7407 52.2937 52.0435 52.2937ZM58.4123 27.4584V39.0382C58.4123 39.7346 58.9782 40.3013 59.6754 40.3013C60.3728 40.3013 60.9385 39.7346 60.9385 39.0382V27.4584C60.9385 26.761 60.3726 26.1953 59.6754 26.1953C58.9782 26.1951 58.4123 26.761 58.4123 27.4584Z" fill="#6EB528"/>
<path fill-rule="evenodd" clip-rule="evenodd" d="M51.8093 42.144H1.38907C0.691739 42.144 0.125977 42.7091 0.125977 43.4071V51.003C0.125977 52.0152 0.52847 52.9861 1.24429 53.7027C1.96011 54.4186 2.93101 54.8203 3.94405 54.8203H52.0434C52.7407 54.8203 53.3065 54.2544 53.3065 53.5572C53.3065 52.8608 52.7406 52.2941 52.0434 52.2941H3.94405C3.60126 52.2941 3.27287 52.1586 3.03035 51.916C2.78861 51.6743 2.65229 51.3459 2.65229 51.0033V44.6706H51.8093C52.5066 44.6706 53.0724 44.1047 53.0724 43.4075C53.0724 42.7103 52.5065 42.144 51.8093 42.144Z" fill="#6EB528"/>
<path fill-rule="evenodd" clip-rule="evenodd" d="M59.6754 37.7754C53.864 37.7754 49.1465 42.4929 49.1465 48.3043C49.1465 54.1157 53.864 58.8332 59.6754 58.8332C65.4868 58.8332 70.2051 54.1157 70.2051 48.3043C70.2051 42.4929 65.4866 37.7754 59.6754 37.7754ZM59.6754 40.3017C64.0922 40.3017 67.6787 43.8874 67.6787 48.3043C67.6787 52.7211 64.0922 56.3069 59.6754 56.3069C55.2585 56.3069 51.6728 52.7211 51.6728 48.3043C51.6728 43.8874 55.2585 40.3017 59.6754 40.3017Z" fill="#6EB528"/>
<path fill-rule="evenodd" clip-rule="evenodd" d="M43.2685 79.9999C50.8929 79.9999 68.4618 79.9999 76.087 79.9747C77.3864 79.9747 78.5981 79.3043 79.2929 78.2012C79.9868 77.0971 80.0652 75.7145 79.5 74.5397C79.4993 74.5379 79.4993 74.5372 79.4983 74.5354C75.9312 67.1805 68.391 62.106 59.6752 62.106C50.9611 62.106 43.4225 67.1788 39.831 74.5202C39.8293 74.5228 39.8285 74.5253 39.8268 74.5278C39.2584 75.7109 39.3375 77.1038 40.0364 78.2145C40.7355 79.3263 41.9558 79.9999 43.2685 79.9999ZM43.2685 77.4736C43.2685 77.4736 43.2685 77.4736 43.2677 77.4736C42.8239 77.4736 42.4114 77.2454 42.1746 76.8698C41.9389 76.4951 41.9119 76.0252 42.103 75.6252C45.2846 69.1259 51.959 64.6324 59.6752 64.6324C67.3906 64.6324 74.0651 69.1251 77.2239 75.6354C77.4118 76.0269 77.3856 76.4885 77.154 76.8565C76.9225 77.2245 76.5175 77.4485 76.0829 77.4485C76.0812 77.4485 76.0796 77.4485 76.0787 77.4485C68.456 77.4736 50.8913 77.4736 43.2685 77.4736Z" fill="#6EB528"/>
<path fill-rule="evenodd" clip-rule="evenodd" d="M33.2781 14.1601V3.81728C33.2781 3.10397 33.8567 2.52632 34.5699 2.52632H62.6473C62.9892 2.52632 63.3176 2.66277 63.5602 2.90437C63.8028 3.1469 63.9383 3.47529 63.9383 3.81728V20.2871C63.9383 20.629 63.8028 20.9574 63.5602 21.2001C63.3177 21.4418 62.9893 21.5781 62.6473 21.5781H44.0234C43.327 21.5781 42.7603 22.144 42.7603 22.8412C42.7603 23.5384 43.327 24.1043 44.0234 24.1043H62.6473C63.6596 24.1043 64.6305 23.7018 65.3463 22.986C66.0621 22.2702 66.4646 21.2993 66.4646 20.287C66.4646 16.1346 66.4646 7.96955 66.4646 3.81715C66.4646 2.8049 66.0621 1.83401 65.3463 1.11818C64.6306 0.402493 63.6597 0 62.6475 0C56.4648 0 40.7519 0 34.57 0C32.4614 0 30.752 1.70944 30.752 3.81728V14.1601C30.752 14.8572 31.3186 15.4231 32.015 15.4231C32.7122 15.4231 33.2781 14.8572 33.2781 14.1601Z" fill="#6EB528"/>
<path fill-rule="evenodd" clip-rule="evenodd" d="M56.7651 5.87793H45.9096C45.2122 5.87793 44.6465 6.44382 44.6465 7.14102C44.6465 7.83822 45.2124 8.40411 45.9096 8.40411H56.7651C57.4615 8.40411 58.0282 7.83822 58.0282 7.14102C58.0282 6.44382 57.4615 5.87793 56.7651 5.87793Z" fill="#6EB528"/>
<path fill-rule="evenodd" clip-rule="evenodd" d="M56.7655 10.7891H47.9975C47.3001 10.7891 46.7344 11.355 46.7344 12.0522C46.7344 12.7494 47.3003 13.3152 47.9975 13.3152H56.7654C57.4618 13.3152 58.0285 12.7494 58.0285 12.0522C58.0286 11.355 57.4619 10.7891 56.7655 10.7891Z" fill="#6EB528"/>
<path fill-rule="evenodd" clip-rule="evenodd" d="M56.7653 15.7002H50.4242C49.7269 15.7002 49.1611 16.2661 49.1611 16.9633C49.1611 17.6606 49.727 18.2264 50.4242 18.2264H56.7653C57.4617 18.2264 58.0284 17.6605 58.0284 16.9633C58.0284 16.2661 57.4617 15.7002 56.7653 15.7002Z" fill="#6EB528"/>
<path fill-rule="evenodd" clip-rule="evenodd" d="M21.7305 3.97412C18.0379 3.97412 15.04 6.97202 15.04 10.6646C15.04 14.3572 18.0379 17.356 21.7305 17.356C25.424 17.356 28.4219 14.3573 28.4219 10.6646C28.4219 6.97188 25.424 3.97412 21.7305 3.97412ZM21.7305 6.50044C24.0295 6.50044 25.8956 8.36654 25.8956 10.6646C25.8956 12.9636 24.0295 14.8297 21.7305 14.8297C19.4325 14.8297 17.5664 12.9636 17.5664 10.6646C17.5664 8.36654 19.4325 6.50044 21.7305 6.50044Z" fill="#6EB528"/>
<path fill-rule="evenodd" clip-rule="evenodd" d="M31.2535 19.5511H17.8717C14.2372 19.5511 11.134 22.1735 10.5277 25.7575C10.0334 28.6838 9.44228 32.1794 9.07928 34.3217C8.93451 35.1823 9.17531 36.064 9.7387 36.7302C10.3021 37.3972 11.1315 37.7819 12.004 37.7819H25.8575C27.4953 37.7819 28.8234 36.454 28.8234 34.816V27.9596H31.9938C33.6882 27.9596 35.3176 27.3044 36.5404 26.1314C37.5568 25.1554 38.9042 23.8636 40.0225 22.7908C40.8267 22.0185 41.2916 20.9591 41.3152 19.8442C41.3379 18.7411 40.9262 17.6733 40.1691 16.8716C40.1616 16.8631 40.1295 16.8294 40.1212 16.8219C39.3515 16.032 38.3022 15.5764 37.1991 15.5537C36.0841 15.5302 35.0064 15.9511 34.2012 16.7226L31.2535 19.5511ZM31.7613 22.0774C32.0872 22.0774 32.4005 21.9512 32.6354 21.7254C32.6354 21.7254 34.4249 20.0092 35.9499 18.5456C36.2708 18.2382 36.701 18.0698 37.1466 18.0791C37.5862 18.0883 38.0056 18.2702 38.312 18.5851C38.3155 18.5884 38.3289 18.602 38.3322 18.6053C38.6337 18.9254 38.7979 19.3514 38.7886 19.7918C38.7794 20.2364 38.594 20.6591 38.2733 20.9674C37.155 22.0403 35.8084 23.3321 34.7912 24.3081C34.0384 25.0298 33.0363 25.4332 31.9937 25.4332H27.56C26.8628 25.4332 26.2969 25.9983 26.2969 26.6963V34.8159C26.2969 35.0584 26.0998 35.2555 25.8573 35.2555H12.0039C11.8751 35.2555 11.7521 35.1982 11.6678 35.0998C11.5845 35.0012 11.5491 34.8699 11.5701 34.7427C11.9331 32.6004 12.5242 29.1048 13.0185 26.1785C13.4194 23.8105 15.4699 22.0774 17.8715 22.0774H31.7613Z" fill="#6EB528"/>
<path fill-rule="evenodd" clip-rule="evenodd" d="M16.8779 36.7294L18.2185 28.8026C18.3348 28.1147 17.8707 27.4628 17.1836 27.3467C16.4964 27.2296 15.8437 27.6936 15.7276 28.3809L14.387 36.3084C14.2707 36.9956 14.7348 37.6482 15.4219 37.7643C16.1091 37.8806 16.7618 37.4173 16.8779 36.7294Z" fill="#6EB528"/>
<path fill-rule="evenodd" clip-rule="evenodd" d="M40.5599 18.3125L43.205 11.0999C43.445 10.4447 43.1082 9.7188 42.4539 9.47878C41.7987 9.23877 41.0729 9.57561 40.8328 10.23L38.1878 17.4427C37.9478 18.0978 38.2846 18.8237 38.9389 19.0637C39.594 19.3036 40.3199 18.9668 40.5599 18.3125Z" fill="#6EB528"/>
<path fill-rule="evenodd" clip-rule="evenodd" d="M28.7816 49.7454H32.2823C32.9795 49.7454 33.5454 49.1795 33.5454 48.4823C33.5454 47.785 32.9795 47.2192 32.2823 47.2192H28.7816C28.0844 47.2192 27.5186 47.7851 27.5186 48.4823C27.5186 49.1795 28.0844 49.7454 28.7816 49.7454Z" fill="#6EB528"/>
</g>
<defs>
<clipPath id="clip0_9730_2222">
<rect width="80" height="80" fill="white"/>
</clipPath>
</defs>
</svg>
