<svg width="447" height="370" viewBox="0 0 447 370" fill="none" xmlns="http://www.w3.org/2000/svg">
<path d="M244.349 369.004H196.13C122.241 359.451 66.7122 324.878 29.5443 265.282C13.6132 239.754 4.31445 211.194 1.648 179.601C-6.51379 83.131 52.0805 -3.55008 147.403 -35.7646C147.546 -35.8139 147.676 -35.893 147.782 -35.9962C147.889 -36.0994 147.969 -36.2239 148.018 -36.3606C148.067 -36.4973 148.082 -36.6426 148.064 -36.7858C148.045 -36.929 147.993 -37.0664 147.91 -37.1878C120.623 -77.9608 114.614 -125.407 127.242 -171.912C128.555 -176.733 129.861 -180.13 131.161 -182.105C133.692 -185.926 136.5 -186.118 139.586 -182.682C157.304 -163.001 177.641 -147.531 200.597 -136.274C224.717 -124.452 248.911 -112.765 273.18 -101.213C375.913 -52.2853 443.704 35.2804 446.1 146.368C446.371 158.907 445.288 171.011 442.851 182.679C434.06 224.817 419.564 262.147 390.754 294.593C352.544 337.61 303.742 362.413 244.349 369.004ZM212.921 19.3943C207.371 21.0868 201.639 21.5099 195.724 20.6637C195.367 20.6132 195.002 20.6343 194.653 20.7256C194.304 20.817 193.978 20.9767 193.694 21.1949C193.41 21.413 193.176 21.6849 193.005 21.9938C192.833 22.3027 192.729 22.6421 192.699 22.9909L190.405 47.3777C190.352 47.9344 190.033 48.4985 189.511 48.9548L176.619 60.0904C176.062 60.568 175.462 60.8822 174.893 60.9943C165.29 62.8983 159.808 54.1283 151.118 55.7053C141.21 57.494 139.201 69.072 140.48 77.0535C141.373 82.6502 140.581 86.3813 140.053 91.5933C139.988 92.2308 139.725 92.8222 139.302 93.2858C136.162 96.6579 132.318 99.1518 127.77 100.767C124.156 102.062 123.1 104.402 124.603 107.787C131.181 122.519 160.64 136.482 177.898 142.656C180.118 143.438 182.128 143.111 183.928 141.675C194.303 133.386 207.784 131.982 223.519 132.212C234.421 132.366 246.299 130.982 254.42 123.308C269.545 109.037 276.286 84.9581 295.574 77.919C296.339 77.6367 296.997 77.1477 297.461 76.5162C297.924 75.8848 298.173 75.1403 298.173 74.3802L298.213 51.1472C298.227 48.6342 297.279 46.4225 295.371 44.5121C276.55 25.568 240.979 30.4146 223.742 8.72031C223.567 8.50375 223.346 8.32515 223.093 8.19687C222.839 8.06859 222.56 7.99364 222.275 7.97719C221.989 7.96074 221.704 8.00322 221.438 8.10162C221.173 8.20001 220.934 8.35199 220.737 8.54715C219.925 9.33569 210.87 18.0096 212.88 18.9905C213.245 19.1572 213.259 19.2918 212.921 19.3943ZM67.4905 63.4368C78.0074 67.5526 82.7786 62.7253 91.3262 58.321C91.6249 58.1646 91.8818 57.9593 92.0783 57.7199C92.2749 57.4805 92.4063 57.2129 92.4631 56.9362L95.9349 40.2232C96.4899 37.505 97.681 35.5048 99.5082 34.2226L116.258 22.3947C116.359 22.3245 116.442 22.234 116.502 22.1304C116.561 22.0269 116.595 21.9129 116.601 21.7975C116.607 21.6821 116.584 21.5684 116.536 21.4651C116.487 21.3618 116.413 21.2718 116.319 21.2021C114.086 19.5481 111.453 18.7725 108.421 18.8751C107.802 18.9 107.175 19.1362 106.635 19.5482C102.885 22.4972 99.0413 25.3436 95.1025 28.0874C87.4889 33.3764 80.1189 30.9916 73.8453 39.4347C69.6629 45.0634 66.5904 51.2049 64.6278 57.8594C63.8427 60.5263 64.797 62.3855 67.4905 63.4368ZM362.858 66.0717C369.497 59.725 374.715 54.4744 384.602 50.5318C384.872 50.425 385.093 50.235 385.224 49.9977C385.355 49.7603 385.387 49.492 385.313 49.2432C384.636 46.8712 383.289 44.7492 381.273 42.8773C381.062 42.6781 380.797 42.5237 380.496 42.4243C380.195 42.3248 379.865 42.2826 379.527 42.3003C369.686 42.8004 361.795 39.4731 355.853 32.3186C354.649 30.8698 353.925 30.9467 353.681 32.5494C351.502 46.884 346.061 59.9942 337.357 71.88C336.626 72.8801 336.897 73.3095 338.169 73.1685C345.255 72.38 357.579 71.1106 362.858 66.0717ZM415.585 183.775C405.535 167.85 417.574 134.713 421.533 117.653C422.061 115.384 421.209 113.775 418.975 112.826C392.602 101.71 390.368 131.52 388.703 146.291C388.625 147.002 388.356 147.673 387.926 148.229C387.496 148.786 386.922 149.207 386.267 149.445L361.822 158.33C360.917 158.666 360.152 159.256 359.649 160.009C359.145 160.761 358.931 161.632 359.041 162.484C360.279 171.639 359.934 175.928 353.397 183.313C347.996 189.391 343.367 195.814 335.611 199.372C326.61 203.488 317.379 207.117 307.918 210.258C307.66 210.346 307.425 210.486 307.23 210.668C307.035 210.85 306.884 211.069 306.787 211.311C306.69 211.553 306.651 211.811 306.671 212.067C306.691 212.324 306.77 212.573 306.903 212.797L322.556 238.972C323.68 240.857 325.541 241.889 328.14 242.069L346.94 243.3C347.254 243.323 347.566 243.274 347.844 243.156C348.122 243.037 348.357 242.855 348.524 242.626C353.153 236.382 358.757 231.023 365.335 226.548C365.604 226.366 365.907 226.238 366.225 226.172C366.542 226.105 366.868 226.103 367.182 226.163L380.542 228.587C382.883 229.023 384.873 228.497 386.511 227.01C390.111 223.766 393.454 220.124 396.54 216.086C403.362 207.162 414.915 205.469 422.163 196.68C422.356 196.444 422.478 196.165 422.514 195.876C422.55 195.586 422.498 195.299 422.366 195.045C421.405 193.199 419.144 189.442 415.585 183.775ZM62.2523 172.274C74.1295 171.235 73.8656 160.907 72.8708 152.503C72.5459 149.823 73.5881 147.765 75.9974 146.329C80.7686 143.483 92.2601 137.655 94.6355 133.52C98.5134 126.75 89.9049 128.558 86.6159 129.308C78.1428 131.219 68.9049 132.321 58.9023 132.616C58.4618 132.632 58.0393 132.786 57.7012 133.054C57.3631 133.322 57.1286 133.689 57.0344 134.097C55.2884 141.848 44.4263 173.812 62.2523 172.274ZM207.033 178.486C204.853 177.729 202.512 177.364 200.008 177.39C199.737 177.39 199.476 177.492 199.283 177.676C199.089 177.859 198.978 178.109 198.972 178.371C198.742 186.602 196.231 194.109 191.44 200.892C188.3 205.341 189.647 207.354 195.48 206.931L214.524 205.546C215.237 205.496 215.871 205.273 216.331 204.911C225.359 197.629 233.366 189.429 240.35 180.313C240.561 180.04 240.716 179.747 240.807 179.453C240.898 179.159 240.922 178.869 240.878 178.601L238.665 165.312C238.576 164.78 238.302 164.283 237.878 163.885C237.454 163.487 236.9 163.206 236.289 163.081C228.452 161.504 220.778 172.37 216.311 177.409C214.389 179.589 211.296 179.948 207.033 178.486ZM89.0116 182.006C86.3113 192.487 100.889 198.065 108.604 202.2C108.869 202.34 109.09 202.546 109.243 202.797C109.397 203.047 109.477 203.332 109.477 203.623L109.457 266.109C109.457 266.364 109.564 266.609 109.754 266.789C109.944 266.97 110.203 267.071 110.472 267.071L125.882 267.052C126.209 267.051 126.532 267.114 126.833 267.236C127.133 267.359 127.404 267.538 127.628 267.763C127.853 267.989 128.026 268.255 128.138 268.546C128.249 268.837 128.297 269.147 128.278 269.456C127.899 275.072 126.335 280.354 123.588 285.303C122.112 287.97 122.816 288.926 125.699 288.169L145.697 282.938C146.602 282.702 147.383 282.17 147.875 281.453C148.367 280.736 148.532 279.89 148.337 279.091L146.286 270.879C146.054 269.947 146.152 268.982 146.559 268.181C146.967 267.38 147.654 266.804 148.479 266.571C157.277 264.032 165.987 261.353 174.609 258.532C186.973 254.493 194.648 249.358 192.902 236.337C192.883 236.205 192.838 236.077 192.77 235.961C192.703 235.845 192.613 235.743 192.507 235.663C192.401 235.582 192.281 235.524 192.153 235.491C192.026 235.458 191.894 235.452 191.765 235.472L173.046 238.357C170.542 238.754 168.951 237.844 168.274 235.626L165.554 226.663C165.485 226.445 165.33 226.234 165.103 226.049C164.876 225.864 164.584 225.712 164.254 225.606L158.874 223.856C158.65 223.785 158.453 223.609 158.311 223.354C158.169 223.098 158.089 222.775 158.082 222.432L157.676 204.181C157.671 203.904 157.573 203.629 157.394 203.387C157.214 203.146 156.96 202.947 156.661 202.815C138.49 194.526 115.71 192.776 98.7976 179.14C95.3258 176.332 90.1689 177.544 89.0116 182.006ZM347.712 276.206L368.908 276.341C369.195 276.342 369.48 276.246 369.727 276.068C369.974 275.889 370.17 275.635 370.289 275.341C372.766 268.943 373.855 262.282 373.557 255.358C373.548 255.125 373.478 254.897 373.352 254.695C373.226 254.494 373.049 254.325 372.836 254.203C372.623 254.081 372.381 254.011 372.132 253.998C371.882 253.985 371.633 254.029 371.405 254.128L342.961 266.321C342.667 266.448 342.406 266.631 342.196 266.856C341.986 267.082 341.832 267.345 341.743 267.629C337.56 280.841 326.678 291.689 317.197 302.324C316.181 303.465 316.445 303.869 317.988 303.536C332.39 300.318 341.594 291.676 345.6 277.61C345.71 277.209 345.977 276.853 346.359 276.599C346.741 276.345 347.217 276.207 347.712 276.206ZM221.529 305.075L216.291 306.055C216.02 306.105 215.775 306.251 215.598 306.468C215.42 306.685 215.321 306.961 215.316 307.248C215.276 309.799 214.139 311.691 211.905 312.922C211.631 313.072 211.321 313.164 210.995 313.191C210.669 313.217 210.336 313.178 210.017 313.075L186.425 305.671C186.057 305.552 185.667 305.507 185.28 305.537C184.893 305.567 184.517 305.672 184.177 305.846C183.837 306.019 183.54 306.258 183.305 306.545C183.07 306.833 182.902 307.164 182.811 307.517C181.904 311.03 179.847 313.986 176.639 316.383C176.098 316.781 175.698 317.268 175.441 317.845L167.117 336.001C166.829 336.621 166.764 337.258 166.934 337.789C167.909 340.751 170.623 342.443 175.076 342.866C207.222 345.918 236.445 345.796 262.744 342.501C267.129 341.95 270.479 341.084 272.794 339.905C273.064 339.768 273.295 339.566 273.469 339.314C273.642 339.063 273.752 338.771 273.789 338.462C274.317 333.885 274.005 329.763 272.855 326.096C272.137 323.788 270.513 322.666 267.982 322.73C262.906 322.833 258.541 321.762 254.887 319.518C254.63 319.364 254.429 319.141 254.309 318.876C254.19 318.612 254.157 318.319 254.217 318.037L257.282 303.574C258.04 299.997 257.106 297.292 254.481 295.458L243.74 287.938C243.524 287.785 243.343 287.59 243.212 287.369C243.08 287.148 243 286.905 242.979 286.66C242.957 286.414 242.994 286.172 243.088 285.95C243.181 285.729 243.328 285.534 243.517 285.38C270.743 263.186 213.042 235.857 216.961 281.899C217.014 282.486 217.291 283.073 217.753 283.573L222.158 288.361C222.409 288.629 222.606 288.917 222.739 289.207C222.871 289.498 222.936 289.785 222.93 290.054L222.666 303.978C222.664 304.228 222.549 304.474 222.342 304.674C222.134 304.874 221.847 305.016 221.529 305.075Z" fill="#1D6987"/>
</svg>
