<svg width="140" height="194" viewBox="0 0 140 194" fill="none" xmlns="http://www.w3.org/2000/svg">
<g opacity="0.5">
<circle cx="2.34743" cy="2.34743" r="2.34743" fill="#3C3C3C"/>
<circle cx="29.343" cy="2.34743" r="2.34743" fill="#3C3C3C"/>
<circle cx="56.3386" cy="2.34743" r="2.34743" fill="#3C3C3C"/>
<circle cx="83.3338" cy="2.34743" r="2.34743" fill="#3C3C3C"/>
<circle cx="110.329" cy="2.34743" r="2.34743" fill="#3C3C3C"/>
<circle cx="137.325" cy="2.34743" r="2.34743" fill="#3C3C3C"/>
<circle cx="2.34743" cy="29.3416" r="2.34743" fill="#3C3C3C"/>
<circle cx="29.343" cy="29.3416" r="2.34743" fill="#3C3C3C"/>
<circle cx="56.3386" cy="29.3416" r="2.34743" fill="#3C3C3C"/>
<circle cx="83.3338" cy="29.3416" r="2.34743" fill="#3C3C3C"/>
<circle cx="110.33" cy="29.3416" r="2.34743" fill="#3C3C3C"/>
<circle cx="137.325" cy="29.3416" r="2.34743" fill="#3C3C3C"/>
<circle cx="2.34743" cy="56.3377" r="2.34743" fill="#3C3C3C"/>
<circle cx="29.343" cy="56.3377" r="2.34743" fill="#3C3C3C"/>
<circle cx="56.3386" cy="56.3377" r="2.34743" fill="#3C3C3C"/>
<circle cx="83.3338" cy="56.3377" r="2.34743" fill="#3C3C3C"/>
<circle cx="110.33" cy="56.3377" r="2.34743" fill="#3C3C3C"/>
<circle cx="137.325" cy="56.3377" r="2.34743" fill="#3C3C3C"/>
<circle cx="2.34743" cy="83.3335" r="2.34743" fill="#3C3C3C"/>
<circle cx="29.343" cy="83.3335" r="2.34743" fill="#3C3C3C"/>
<circle cx="56.3386" cy="83.3335" r="2.34743" fill="#3C3C3C"/>
<circle cx="83.3338" cy="83.3335" r="2.34743" fill="#3C3C3C"/>
<circle cx="110.329" cy="83.3335" r="2.34743" fill="#3C3C3C"/>
<circle cx="137.325" cy="83.3335" r="2.34743" fill="#3C3C3C"/>
<circle cx="2.34743" cy="110.33" r="2.34743" fill="#3C3C3C"/>
<circle cx="29.343" cy="110.33" r="2.34743" fill="#3C3C3C"/>
<circle cx="56.3386" cy="110.33" r="2.34743" fill="#3C3C3C"/>
<circle cx="83.3338" cy="110.33" r="2.34743" fill="#3C3C3C"/>
<circle cx="110.33" cy="110.33" r="2.34743" fill="#3C3C3C"/>
<circle cx="137.325" cy="110.33" r="2.34743" fill="#3C3C3C"/>
<circle cx="2.34743" cy="137.324" r="2.34743" fill="#3C3C3C"/>
<circle cx="29.343" cy="137.324" r="2.34743" fill="#3C3C3C"/>
<circle cx="56.3386" cy="137.324" r="2.34743" fill="#3C3C3C"/>
<circle cx="83.3338" cy="137.324" r="2.34743" fill="#3C3C3C"/>
<circle cx="110.33" cy="137.324" r="2.34743" fill="#3C3C3C"/>
<circle cx="137.325" cy="137.324" r="2.34743" fill="#3C3C3C"/>
<circle cx="2.34743" cy="164.32" r="2.34743" fill="#3C3C3C"/>
<circle cx="29.343" cy="164.32" r="2.34743" fill="#3C3C3C"/>
<circle cx="56.3386" cy="164.32" r="2.34743" fill="#3C3C3C"/>
<circle cx="83.3338" cy="164.32" r="2.34743" fill="#3C3C3C"/>
<circle cx="110.33" cy="164.32" r="2.34743" fill="#3C3C3C"/>
<circle cx="137.325" cy="164.32" r="2.34743" fill="#3C3C3C"/>
<circle cx="2.34743" cy="191.316" r="2.34743" fill="#3C3C3C"/>
<circle cx="29.343" cy="191.316" r="2.34743" fill="#3C3C3C"/>
<circle cx="56.3386" cy="191.316" r="2.34743" fill="#3C3C3C"/>
<circle cx="83.3338" cy="191.316" r="2.34743" fill="#3C3C3C"/>
<circle cx="110.33" cy="191.316" r="2.34743" fill="#3C3C3C"/>
<circle cx="137.325" cy="191.316" r="2.34743" fill="#3C3C3C"/>
</g>
</svg>
