<svg width="50" height="50" viewBox="0 0 50 50" fill="none" xmlns="http://www.w3.org/2000/svg">
<g clip-path="url(#clip0_9736_2667)">
<path d="M18.3466 16.3386V14.8711H5.67529V39.8219H11.1059V38.3544H7.14319V16.3386H18.3466Z" fill="#115E7C"/>
<path d="M3.22913 14.6263C3.22913 13.4124 4.21637 12.4248 5.43059 12.4248H22.8332V10.9573H5.43059C3.40727 10.9573 1.76123 12.6029 1.76123 14.6263V29.7927H3.22913V14.6263Z" fill="#115E7C"/>
<path d="M50 10.0693V4.54826C50 2.52495 48.354 0.878906 46.3306 0.878906H42.7662V2.3468H46.3306C47.5449 2.3468 48.5321 3.33405 48.5321 4.54826V6.74973H33.366V4.54826C33.366 3.33405 34.3536 2.3468 35.5675 2.3468H41.2983V0.878906H35.5675C33.5442 0.878906 31.8981 2.52495 31.8981 4.54826V10.9573H24.3011V12.4249H31.8981V14.8712H19.8139V16.3387H31.8981V31.9454C31.8981 33.9687 33.5442 35.6148 35.5675 35.6148H42.857V38.3545H12.5732V39.822H44.3249V35.6148H46.3306C46.4798 35.6148 46.6267 35.6049 46.7709 35.5873V42.2684H31.2134V43.0023C31.2134 43.3529 30.928 43.6382 30.5775 43.6382H19.4225C19.072 43.6382 18.7866 43.3529 18.7866 43.0023V42.2684H8.14247V43.7359H17.4511C17.7494 44.5354 18.5207 45.1057 19.4225 45.1057H30.5775C31.4793 45.1057 32.2506 44.5354 32.5489 43.7359H48.5321V45.5463C48.5321 46.7602 47.5449 47.7478 46.3306 47.7478H3.66936C2.45514 47.7478 1.4679 46.7602 1.4679 45.5463V43.7359H6.67458V42.2684H3.22914V31.2607H1.76125V42.2684H0V45.5463C0 47.5697 1.64604 49.2153 3.66936 49.2153H46.3306C48.354 49.2153 50 47.5697 50 45.5463V42.2684H48.2388V35.0784C49.2943 34.4334 50 33.2703 50 31.9454V11.5372H48.5321V25.3407H33.366V8.21762H48.5321V10.0693H50ZM48.5321 26.8085V31.9454C48.5321 33.1593 47.5449 34.1469 46.3306 34.1469H35.5675C34.3536 34.1469 33.366 33.1593 33.366 31.9454V26.8085H48.5321Z" fill="#115E7C"/>
<path d="M43.1509 28.2761H38.7476V32.6794H43.1509V28.2761ZM41.683 31.2115H40.2155V29.744H41.683V31.2115Z" fill="#115E7C"/>
<path d="M26.1255 25.8789C26.1255 22.237 23.1627 19.2742 19.5208 19.2742C15.8789 19.2742 12.916 22.237 12.916 25.8789C12.916 29.5208 15.8789 32.4837 19.5208 32.4837C23.1627 32.4837 26.1255 29.5208 26.1255 25.8789ZM19.5208 31.0158C16.688 31.0158 14.3839 28.7113 14.3839 25.8789C14.3839 23.0465 16.688 20.7421 19.5208 20.7421C22.3532 20.7421 24.6577 23.0465 24.6577 25.8789C24.6577 28.7113 22.3532 31.0158 19.5208 31.0158Z" fill="#115E7C"/>
<path d="M34.8335 16.7789C34.8335 20.1511 37.577 22.8946 40.9492 22.8946C44.321 22.8946 47.0646 20.1511 47.0646 16.7789C47.0646 13.4071 44.321 10.6636 40.9492 10.6636C37.577 10.6636 34.8335 13.4071 34.8335 16.7789ZM45.5967 16.7789C45.5967 19.3416 43.5119 21.4267 40.9492 21.4267C38.3865 21.4267 36.3014 19.3416 36.3014 16.7789C36.3014 14.2162 38.3865 12.1315 40.9492 12.1315C43.5119 12.1315 45.5967 14.2162 45.5967 16.7789Z" fill="#115E7C"/>
<path d="M36.0571 3.81421H37.5246V5.2821H36.0571V3.81421Z" fill="#115E7C"/>
<path d="M44.3735 3.81421H45.8414V5.2821H44.3735V3.81421Z" fill="#115E7C"/>
<path d="M38.9922 3.81421H42.9061V5.2821H38.9922V3.81421Z" fill="#115E7C"/>
<path d="M18.7866 33.9512H20.2545V35.4191H18.7866V33.9512Z" fill="#115E7C"/>
<path d="M21.7222 33.9512H23.1901V35.4191H21.7222V33.9512Z" fill="#115E7C"/>
<path d="M15.8511 33.9512H17.319V35.4191H15.8511V33.9512Z" fill="#115E7C"/>
<path d="M3.66943 45.0081H7.58331V46.4756H3.66943V45.0081Z" fill="#115E7C"/>
<path d="M9.05078 45.0081H10.5187V46.4756H9.05078V45.0081Z" fill="#115E7C"/>
<path d="M18.444 26.9939L17.0062 25.5557L15.9683 26.5933L18.444 29.069L23.0728 24.4407L22.0348 23.4031L18.444 26.9939Z" fill="#115E7C"/>
<path d="M38.6304 16.26L37.5928 17.298L40.0685 19.7737L44.3055 15.5368L43.2679 14.4988L40.0685 17.6982L38.6304 16.26Z" fill="#115E7C"/>
</g>
<defs>
<clipPath id="clip0_9736_2667">
<rect width="50" height="50" fill="white"/>
</clipPath>
</defs>
</svg>
