<svg width="50" height="50" viewBox="0 0 50 50" fill="none" xmlns="http://www.w3.org/2000/svg">
<path d="M25.7814 1.5647C24.7714 1.5647 23.9112 2.22079 23.5856 3.12416H3.90636C2.62143 3.12416 1.56261 4.18293 1.56261 5.46785V13.2804C1.54761 14.337 3.14014 14.337 3.12511 13.2804V5.46785C3.12511 5.02154 3.46002 4.68668 3.90636 4.68668H23.4407V6.24911H5.46886C5.0374 6.24917 4.68765 6.59892 4.68761 7.03038V28.9054C4.68765 29.3368 5.0374 29.6866 5.46886 29.6866H41.4064C41.8378 29.6866 42.1876 29.3368 42.1876 28.9054V18.7507H43.7501V30.4679C43.7501 30.9142 43.4152 31.2491 42.9689 31.2491H3.90636C3.46002 31.2491 3.12511 30.9142 3.12511 30.4679V20.3116C3.14011 19.2551 1.54757 19.2551 1.56261 20.3116V30.4679C1.56261 31.7528 2.62143 32.8117 3.90636 32.8117H42.9689C44.2538 32.8117 45.3126 31.7528 45.3126 30.4679V18.7507H46.0923C47.3773 18.7507 48.4407 17.6872 48.4407 16.4023V3.90533C48.4407 2.62041 47.3773 1.5647 46.0923 1.5647H25.7814ZM25.7814 3.12109H46.0923C46.5387 3.12109 46.8782 3.45902 46.8782 3.90533V16.4023C46.8782 16.8486 46.5387 17.1881 46.0923 17.1881H32.8111C32.6259 17.1873 32.4463 17.2522 32.3045 17.3712L28.1221 20.9586V17.9663C28.1205 17.5373 27.7729 17.1898 27.3439 17.1881H25.7814C25.3351 17.1881 25.0032 16.8486 25.0032 16.4023V3.90533C25.0032 3.45902 25.3351 3.12109 25.7814 3.12109ZM32.0329 6.24758V14.0616C32.033 14.6741 32.7057 15.0483 33.2261 14.7254L39.4776 10.8206C39.9682 10.5147 39.9682 9.80055 39.4776 9.49464L33.2261 5.58383C32.7576 5.29062 32.0329 5.55283 32.0329 6.24758ZM33.5954 7.66052L37.5871 10.157L33.5954 12.6487V7.66052ZM6.25011 7.81173H23.4407V16.4025C23.4407 17.6874 24.4964 18.7507 25.7814 18.7507H26.5596V22.654C26.5557 23.3251 27.3444 23.6881 27.852 23.2491L33.0995 18.7507H40.6251V28.1243H25.0001C25.0001 25.5409 22.8944 23.4413 20.3111 23.4413H19.5329V21.4516C20.4896 20.5922 21.0969 19.3506 21.0969 17.968V17.1898C21.5284 17.1883 21.8768 16.837 21.8751 16.4055V14.0633C21.8751 11.4799 19.7694 9.37425 17.1861 9.37425H15.6236C13.0402 9.37425 10.9407 11.4799 10.9407 14.0633V16.4055C10.9391 16.837 11.2874 17.1881 11.7189 17.1898V17.968C11.7188 19.3504 12.3234 20.5923 13.2798 21.4516V23.4413H12.4971C9.9137 23.4413 7.81413 25.5409 7.81413 28.1243H6.25011V7.81173ZM15.6236 10.9383H17.1861C18.9308 10.9383 20.3111 12.3185 20.3111 14.0633V15.3038L19.3009 14.2936C19.0376 14.0302 18.6266 13.9894 18.3168 14.1958C18.3168 14.1958 16.0561 15.6271 14.0596 15.6271H12.4971V14.0631C12.4971 12.3183 13.8788 10.9383 15.6236 10.9383ZM2.33165 15.6135C1.90078 15.6194 1.55671 15.9746 1.56261 16.4055V17.1868C1.54761 18.2434 3.14014 18.2434 3.12511 17.1868V16.4055C3.13137 15.9651 2.77208 15.6067 2.33165 15.6135ZM18.625 15.8226L19.5329 16.7335V17.968C19.5329 19.7127 18.1527 21.093 16.4079 21.093C14.6631 21.093 13.2798 19.7127 13.2798 17.968V17.1898H14.0596C16.0627 17.1898 18.1057 16.1568 18.625 15.8226ZM14.8454 22.3824C15.3348 22.5563 15.8599 22.657 16.4079 22.657C16.9564 22.657 17.4805 22.5566 17.9704 22.3824V24.07C17.9704 24.07 17.7057 24.9977 16.4079 24.9977C15.1101 24.9977 14.8454 24.0806 14.8454 24.0806V22.3824ZM12.4971 24.9976H13.556C13.556 24.9976 14.2302 26.5601 16.4079 26.5601C18.5855 26.5601 19.2582 24.9976 19.2582 24.9976H20.3111C22.0558 24.9976 23.4376 26.3794 23.4376 28.1242H9.37816C9.37816 26.3794 10.7523 24.9976 12.4971 24.9976ZM8.59538 34.3727C6.44483 34.3727 4.68455 36.1268 4.68455 38.2773V39.0616C4.68455 39.971 5.01326 40.7985 5.53904 41.4634C3.29224 41.8075 1.56569 43.7497 1.56566 46.0914V47.6554C1.5641 48.0868 1.9124 48.438 2.34386 48.4397H14.8408C15.2746 48.4413 15.6268 48.0892 15.6251 47.6554V46.0914C15.6251 43.7505 13.8953 41.8085 11.6487 41.4634C12.1733 40.7985 12.5001 39.971 12.5001 39.0616V38.2773C12.5001 36.1268 10.7459 34.3727 8.59538 34.3727ZM25.0032 34.3727C22.8526 34.3727 21.0923 36.1268 21.0923 38.2773V39.0616C21.0923 39.9708 21.4197 40.7985 21.9453 41.4634C19.698 41.8079 17.9674 43.75 17.9673 46.0914V47.6554C17.9658 48.0892 18.3178 48.4413 18.7516 48.4397H31.2486C31.6824 48.4413 32.0345 48.0892 32.0329 47.6554V46.0914C32.0329 43.7507 30.3027 41.8088 28.0564 41.4634C28.581 40.7985 28.9079 39.971 28.9079 39.0616V38.2773C28.9079 36.1268 27.1537 34.3727 25.0032 34.3727ZM41.4048 34.3727C39.2543 34.3727 37.5001 36.1268 37.5001 38.2773V39.0616C37.5001 39.971 37.827 40.7985 38.3515 41.4634C36.1049 41.8085 34.3736 43.7505 34.3736 46.0914V47.6554C34.372 48.0898 34.725 48.4422 35.1594 48.4397H47.6564C48.0902 48.4413 48.4423 48.0892 48.4407 47.6554V46.0914C48.4407 43.7497 46.7089 41.8075 44.4612 41.4634C44.9869 40.7985 45.3141 39.971 45.3141 39.0616V38.2773C45.3141 36.1268 43.5554 34.3727 41.4048 34.3727ZM8.59538 35.9366C9.90733 35.9366 10.9361 36.9654 10.9361 38.2773V39.0616C10.9361 40.3735 9.90733 41.4038 8.59538 41.4038C7.28343 41.4038 6.24858 40.3735 6.24858 39.0616V38.2773C6.24858 36.9654 7.28343 35.9366 8.59538 35.9366ZM25.0032 35.9366C26.3151 35.9366 27.3439 36.9654 27.3439 38.2773V39.0616C27.3439 40.3735 26.3151 41.4038 25.0032 41.4038C23.6912 41.4038 22.6548 40.3735 22.6548 39.0616V38.2773C22.6548 36.9654 23.6912 35.9366 25.0032 35.9366ZM41.4048 35.9366C42.7168 35.9366 43.7516 36.9654 43.7516 38.2773V39.0616C43.7516 40.3735 42.7168 41.4038 41.4048 41.4038C40.0929 41.4038 39.0626 40.3735 39.0626 39.0616V38.2773C39.0626 36.9654 40.0929 35.9366 41.4048 35.9366ZM6.24858 42.9664H10.9361C12.6808 42.9664 14.0626 44.3466 14.0626 46.0914V46.8772H3.12205V46.0914C3.12207 44.3466 4.50383 42.9664 6.24858 42.9664ZM22.6548 42.9664H27.3439C29.0886 42.9664 30.4704 44.3466 30.4704 46.0914V46.8772H19.5298V46.0914C19.5299 44.3466 20.9101 42.9664 22.6548 42.9664ZM39.0626 42.9664H43.7516C45.4964 42.9664 46.8782 44.3466 46.8782 46.0914V46.8772H35.9376V46.0914C35.9376 44.3466 37.3179 42.9664 39.0626 42.9664Z" fill="#115E7C"/>
</svg>
