<svg width="50" height="50" viewBox="0 0 50 50" fill="none" xmlns="http://www.w3.org/2000/svg">
<g clip-path="url(#clip0_9736_2688)">
<path d="M45.8333 3.33325H4.16667C1.86662 3.33601 0.0027551 5.19987 0 7.49992V37.4999C0.0027551 39.8 1.86662 41.6638 4.16667 41.6666H29.1667V45.8333C29.1667 46.1702 29.3698 46.474 29.6811 46.603C29.9925 46.7319 30.3508 46.6607 30.5892 46.4224L33.3333 43.6783L36.0775 46.4224C36.3158 46.6607 36.6742 46.7319 36.9855 46.603C37.2969 46.474 37.4999 46.1702 37.5 45.8333V41.6666H45.8333C48.1334 41.6638 49.9972 39.8 50 37.4999V7.49992C49.9972 5.19987 48.1334 3.33601 45.8333 3.33325ZM26.925 19.6374C26.7962 19.578 26.7036 19.4605 26.6759 19.3214C26.6482 19.1823 26.6888 19.0383 26.785 18.9341C27.5307 18.1237 27.5307 16.877 26.785 16.0666C26.6885 15.9622 26.6478 15.8179 26.6757 15.6786C26.7036 15.5392 26.7966 15.4216 26.9258 15.3624C27.9241 14.8979 28.4005 13.7465 28.0225 12.7124C27.9733 12.5793 27.9908 12.4306 28.0696 12.3126C28.1484 12.1945 28.279 12.1214 28.4208 12.1158C29.5213 12.0695 30.4029 11.1879 30.4492 10.0874C30.4547 9.94538 30.528 9.8146 30.6462 9.73575C30.7645 9.6569 30.9134 9.63955 31.0467 9.68909C32.0809 10.0649 33.231 9.58861 33.6967 8.59159C33.7556 8.46252 33.873 8.36963 34.0121 8.3419C34.1513 8.31416 34.2953 8.35497 34.3992 8.45159C35.2099 9.19735 36.4568 9.19735 37.2675 8.45159C37.3717 8.35504 37.5159 8.31437 37.6552 8.34226C37.7944 8.37015 37.9119 8.4632 37.9708 8.59242C38.4356 9.58992 39.5862 10.0662 40.62 9.68909C40.7532 9.63955 40.9021 9.6569 41.0204 9.73575C41.1387 9.8146 41.212 9.94538 41.2175 10.0874C41.2643 11.1894 42.1479 12.0716 43.25 12.1166C43.3918 12.1219 43.5224 12.1949 43.6012 12.3128C43.6801 12.4308 43.6976 12.5794 43.6483 12.7124C43.27 13.7467 43.747 14.8985 44.7458 15.3624C44.8746 15.4218 44.9672 15.5393 44.9949 15.6784C45.0226 15.8176 44.9821 15.9615 44.8858 16.0658C44.1402 16.8762 44.1402 18.1228 44.8858 18.9333C44.9824 19.0376 45.023 19.1819 44.9951 19.3213C44.9673 19.4607 44.8742 19.5782 44.745 19.6374C43.7468 20.102 43.2703 21.2533 43.6483 22.2874C43.6975 22.4206 43.68 22.5692 43.6012 22.6873C43.5224 22.8053 43.3918 22.8785 43.25 22.8841C42.1463 22.9284 41.2618 23.8129 41.2175 24.9166C41.212 25.0586 41.1387 25.1894 41.0204 25.2683C40.9021 25.3471 40.7532 25.3645 40.62 25.3149C39.5857 24.9387 38.4354 25.4151 37.97 26.4124C37.9132 26.5427 37.7955 26.6364 37.6558 26.6624C37.5163 26.6916 37.3714 26.6508 37.2675 26.5533C36.4567 25.8079 35.21 25.8079 34.3992 26.5533C34.2952 26.6507 34.1503 26.6914 34.0108 26.6624C33.8709 26.6363 33.753 26.5427 33.6958 26.4124C33.2313 25.4146 32.0805 24.9382 31.0467 25.3158C30.9134 25.3653 30.7645 25.3479 30.6462 25.2691C30.528 25.1902 30.4547 25.0595 30.4492 24.9174C30.4049 23.8135 29.5206 22.9284 28.4167 22.8833C28.2749 22.8779 28.1443 22.8049 28.0654 22.687C27.9866 22.5691 27.9691 22.4205 28.0183 22.2874C28.3973 21.2542 27.9223 20.1029 26.925 19.6374ZM36.0783 35.2433L35.8333 35.4883V27.6549C35.9449 27.6546 36.0524 27.6966 36.1342 27.7724C36.5204 28.1344 37.0299 28.3358 37.5592 28.3358C37.7007 28.3355 37.8419 28.3215 37.9808 28.2941C38.6439 28.1646 39.2031 27.7217 39.4808 27.1058C39.5785 26.8957 39.821 26.7956 40.0383 26.8758C40.2919 26.9656 40.5604 27.006 40.8292 26.9949V35.4883L38.9183 33.5774C38.5929 33.2521 38.0654 33.2521 37.74 33.5774L36.0783 35.2433ZM35.8333 43.8216L33.9225 41.9108C33.5971 41.5854 33.0696 41.5854 32.7442 41.9108L30.8333 43.8216V26.9933C31.1021 27.0044 31.3706 26.964 31.6242 26.8741C31.8411 26.7935 32.0835 26.8933 32.1808 27.1033C32.4593 27.7207 33.0207 28.1643 33.6858 28.2924C33.8441 28.3237 34.0054 28.3374 34.1667 28.3333V37.4999C34.1667 37.8369 34.3698 38.1407 34.6811 38.2696C34.9925 38.3986 35.3508 38.3273 35.5892 38.0891L35.8333 37.8449V43.8216ZM48.3333 37.4999C48.3333 38.8806 47.214 39.9999 45.8333 39.9999H37.5V36.1783L38.3333 35.3449L41.0775 38.0891C41.3158 38.3273 41.6742 38.3986 41.9855 38.2696C42.2969 38.1407 42.4999 37.8369 42.5 37.4999V26.0891C42.7326 25.7625 42.8655 25.3755 42.8825 24.9749C42.8927 24.7438 43.078 24.5588 43.3092 24.5491C43.9847 24.523 44.6069 24.1748 44.9825 23.6126C45.358 23.0504 45.4413 22.3423 45.2067 21.7083C45.1271 21.4914 45.2271 21.2497 45.4367 21.1524C46.0513 20.87 46.4933 20.3101 46.6253 19.6467C46.7572 18.9833 46.5631 18.2968 46.1033 17.8008C45.9467 17.6305 45.9467 17.3685 46.1033 17.1983C46.5631 16.7023 46.7573 16.016 46.6253 15.3527C46.4933 14.6894 46.0513 14.1296 45.4367 13.8474C45.2265 13.7508 45.126 13.5087 45.2058 13.2916C45.4405 12.6575 45.3571 11.9494 44.9816 11.3872C44.6061 10.825 43.9839 10.4768 43.3083 10.4508C43.0772 10.441 42.8918 10.2561 42.8817 10.0249C42.8564 9.3491 42.5086 8.72638 41.9464 8.35044C41.3842 7.9745 40.6759 7.89094 40.0417 8.12575C39.8247 8.20767 39.5814 8.1075 39.485 7.89658C39.2026 7.28194 38.6427 6.83993 37.9793 6.70798C37.3159 6.57602 36.6294 6.77012 36.1333 7.22992C35.9633 7.38644 35.7017 7.38644 35.5317 7.22992C35.0357 6.77011 34.3494 6.576 33.6861 6.70796C33.0228 6.83993 32.463 7.28196 32.1808 7.89658C32.0841 8.10762 31.8407 8.20803 31.6233 8.12659C30.9891 7.89178 30.2808 7.97533 29.7186 8.35127C29.1564 8.72721 28.8086 9.34993 28.7833 10.0258C28.7732 10.2569 28.5878 10.4419 28.3567 10.4516C27.6811 10.4776 27.0589 10.8259 26.6834 11.3881C26.3079 11.9503 26.2245 12.6584 26.4592 13.2924C26.5387 13.5093 26.4387 13.751 26.2292 13.8483C25.6145 14.1306 25.1725 14.6906 25.0406 15.354C24.9086 16.0174 25.1027 16.7038 25.5625 17.1999C25.7191 17.3702 25.7191 17.6321 25.5625 17.8024C25.1027 18.2984 24.9086 18.9847 25.0405 19.648C25.1725 20.3113 25.6145 20.8711 26.2292 21.1533C26.4394 21.2499 26.5399 21.492 26.46 21.7091C26.2253 22.3431 26.3087 23.0512 26.6842 23.6134C27.0597 24.1757 27.6819 24.5239 28.3575 24.5499C28.5887 24.5596 28.774 24.7446 28.7842 24.9758C28.8014 25.376 28.9342 25.7627 29.1667 26.0891V39.9999H4.16667C2.78595 39.9999 1.66667 38.8806 1.66667 37.4999V7.49992C1.66667 6.11921 2.78595 4.99992 4.16667 4.99992H45.8333C47.214 4.99992 48.3333 6.11921 48.3333 7.49992V37.4999Z" fill="#115E7C"/>
<path d="M9.16667 33.3333C7.78596 33.3333 6.66667 32.214 6.66667 30.8333V14.1667C6.66667 12.786 7.78596 11.6667 9.16667 11.6667H24.1667C24.6269 11.6667 25 11.2936 25 10.8333C25 10.3731 24.6269 10 24.1667 10H9.16667C6.86662 10.0028 5.00276 11.8666 5 14.1667V30.8333C5.00276 33.1334 6.86662 34.9972 9.16667 35H25C25.4602 35 25.8333 34.6269 25.8333 34.1667C25.8333 33.7064 25.4602 33.3333 25 33.3333H9.16667Z" fill="#115E7C"/>
<path d="M9.99984 23.3332H21.6665C22.1267 23.3332 22.4998 22.9601 22.4998 22.4998C22.4998 22.0396 22.1267 21.6665 21.6665 21.6665H9.99984C9.5396 21.6665 9.1665 22.0396 9.1665 22.4998C9.1665 22.9601 9.5396 23.3332 9.99984 23.3332Z" fill="#115E7C"/>
<path d="M9.99984 19.9999H21.6665C22.1267 19.9999 22.4998 19.6268 22.4998 19.1666C22.4998 18.7063 22.1267 18.3333 21.6665 18.3333H9.99984C9.5396 18.3333 9.1665 18.7063 9.1665 19.1666C9.1665 19.6268 9.5396 19.9999 9.99984 19.9999Z" fill="#115E7C"/>
<path d="M9.99984 16.6667H21.6665C22.1267 16.6667 22.4998 16.2936 22.4998 15.8333C22.4998 15.3731 22.1267 15 21.6665 15H9.99984C9.5396 15 9.1665 15.3731 9.1665 15.8333C9.1665 16.2936 9.5396 16.6667 9.99984 16.6667Z" fill="#115E7C"/>
<path d="M9.23567 31.1665C9.36827 31.4703 9.66834 31.6667 9.99984 31.6665C10.1146 31.667 10.2281 31.6435 10.3332 31.5973C11.1047 31.3107 11.8137 30.8781 12.4215 30.3232C12.6471 30.098 12.8444 29.8461 13.009 29.5732C13.3272 29.9309 13.7012 30.2348 14.1165 30.4732C14.6957 30.8519 15.4165 30.944 16.0723 30.7232C16.3237 30.6256 16.5511 30.4749 16.739 30.2815C17.1161 30.5171 17.5315 30.685 17.9665 30.7773L18.5965 30.9265C19.8824 31.3032 21.2185 31.4802 22.5582 31.4515C22.8551 31.4301 23.1181 31.2518 23.2481 30.9839C23.378 30.716 23.3551 30.3991 23.1881 30.1527C23.021 29.9062 22.7351 29.7676 22.4382 29.789C21.2692 29.8043 20.1047 29.6413 18.9848 29.3057L18.3407 29.1532C17.5632 28.974 17.3632 28.6607 17.2807 28.4398C17.1354 28.0521 16.7276 27.8298 16.323 27.9179C15.9185 28.0059 15.6399 28.3777 15.669 28.7907C15.6783 28.9401 15.6076 29.0832 15.4832 29.1665C15.2885 29.1913 15.0917 29.1406 14.9332 29.0248C14.2592 28.6053 13.7524 27.9641 13.4998 27.2115C13.3565 26.824 12.9508 26.6 12.5464 26.6853C12.1421 26.7705 11.8613 27.1391 11.8865 27.5515C11.9005 28.1476 11.667 28.7229 11.2415 29.1407C10.7788 29.5453 10.2446 29.8602 9.6665 30.069C9.46377 30.1573 9.30445 30.3226 9.22364 30.5285C9.14284 30.7343 9.14716 30.9638 9.23567 31.1665Z" fill="#115E7C"/>
<path d="M35.8332 24.1666C39.5151 24.1666 42.4998 21.1818 42.4998 17.4999C42.4998 13.818 39.5151 10.8333 35.8332 10.8333C32.1513 10.8333 29.1665 13.818 29.1665 17.4999C29.1706 21.1801 32.153 24.1625 35.8332 24.1666ZM35.8332 12.4999C38.5946 12.4999 40.8332 14.7385 40.8332 17.4999C40.8332 20.2613 38.5946 22.4999 35.8332 22.4999C33.0717 22.4999 30.8332 20.2613 30.8332 17.4999C30.8359 14.7396 33.0729 12.5027 35.8332 12.4999Z" fill="#115E7C"/>
</g>
<defs>
<clipPath id="clip0_9736_2688">
<rect width="50" height="50" fill="white"/>
</clipPath>
</defs>
</svg>
