<svg width="137" height="165" viewBox="0 0 137 165" fill="none" xmlns="http://www.w3.org/2000/svg">
<path d="M57.6269 95.6991C51.2319 101.636 42.8623 102.797 34.3274 101.391C19.8235 99.001 6.47975 88.3808 1.34274 75.3347C-0.664458 70.2383 -1.26586 64.6908 5.68038 62.8322C8.13612 62.1755 10.6403 61.8194 13.1929 61.764C20.2545 61.6089 27.1631 62.4967 33.9189 64.4273C34.8578 64.6948 35.1977 64.5001 34.9388 63.8434C34.9128 63.774 34.861 63.7117 34.791 63.6654C29.2647 59.9006 24.4894 55.5574 20.465 50.6359C15.8742 45.0196 10.9001 35.5697 12.5915 28.4461C13.7117 23.72 17.3502 21.5219 22.2115 20.9569C28.2757 20.2495 34.4978 21.3438 40.1134 23.5301C47.6335 26.4569 53.6801 33.3313 57.1432 40.2863C57.5843 41.1741 58.1982 40.8086 58.0679 39.8781C57.4314 35.311 57.5417 30.751 57.6519 25.581C57.7521 20.8984 58.3569 16.2775 59.4662 11.7183C60.3307 8.15769 61.5736 4.64929 64.0644 2.28266C67.6227 -1.09993 73.5541 -0.190782 77.6412 1.59665C81.0767 3.09923 84.3443 5.95485 86.3165 8.96476C90.6265 15.5385 91.9814 22.666 90.381 30.3475C89.9182 32.563 89.1832 35.1314 88.1758 38.0526C87.9536 38.6936 88.119 38.9412 88.672 38.7956C88.7084 38.7858 88.743 38.7681 88.7736 38.7437C88.8042 38.7192 88.8301 38.6884 88.8499 38.6532C92.3297 32.3295 97.1 27.3281 103.161 23.6488C103.495 23.4462 104.561 22.9374 106.358 22.1224C110.303 20.3374 114.42 19.7819 117.021 23.739C117.796 24.9179 118.289 26.1705 118.499 27.4966C120.444 39.6977 113.543 49.7362 103.414 56.4919C103.345 56.5378 103.296 56.602 103.279 56.6723C103.155 57.1661 103.455 57.3014 104.178 57.0782C111.17 54.9197 118.337 53.971 125.681 54.2321C126.688 54.2669 127.587 54.3421 128.377 54.4576C134.527 55.3478 137.762 57.4936 136.847 63.9692C133.93 84.654 108.947 105.944 86.1335 102.089C78.636 100.822 73.5591 95.2718 71.3189 88.6229C71.2153 88.3144 71.3038 88.2519 71.5845 88.4354C72.8441 89.2583 74.1171 90.0606 75.4034 90.8424C75.7066 91.0252 76.2153 91.0655 76.4985 91.4453C76.5536 91.5181 76.6129 91.5711 76.6764 91.6044C81.222 93.9924 85.1412 95.5021 90.4511 95.4166C93.4456 95.3691 96.0292 95.0914 97.9035 93.0239C99.0061 91.8085 99.2592 89.6745 98.1341 88.3428C94.5307 84.0677 81.2596 85.2119 76.1677 85.6249C76.1224 85.6287 76.0786 85.6251 76.0396 85.6144C76.0005 85.6037 75.9673 85.5862 75.9422 85.5632C75.842 85.4682 75.8896 85.3962 76.085 85.3472C78.1198 84.8321 80.2949 84.3407 82.1492 83.6618C88.9702 81.167 95.1997 76.1584 99.9909 70.9955C100.308 70.6537 100.469 70.2549 100.472 69.7991C100.497 67.5227 91.466 70.5516 90.3584 70.9836C84.1639 73.4001 78.8741 77.1696 74.148 81.618C73.8573 81.8918 73.651 82.0326 73.5291 82.0406C73.3787 82.05 73.3561 81.9598 73.4338 81.8625C80.1119 73.4595 86.2388 65.2748 89.9149 55.4712C90.4436 54.0636 91.7867 50.465 90.837 49.1831C90.7922 49.1223 90.7219 49.0805 90.6416 49.0668C89.4621 48.8659 88.3988 49.1808 87.4516 50.0116C85.1161 52.0562 83.2117 54.1292 81.7382 56.2308C79.4354 59.5161 77.6186 62.8441 75.6866 66.5068C74.0561 69.5974 72.6136 72.7679 71.359 76.0184C71.2713 76.251 71.0833 76.1014 71.151 75.9068C72.0982 73.1794 73.2359 70.1932 73.8398 67.6533C74.6533 64.2303 74.9766 60.7504 74.8095 57.2135C74.6492 53.8143 74.4136 50.1872 73.1858 46.9637C73.0028 46.4818 72.7071 46.1091 72.3964 45.6961C72.3475 45.6312 72.2809 45.5831 72.206 45.5584C70.7676 45.0837 70.2238 45.8789 70.1386 47.1204C69.5355 55.8035 69.016 64.4891 68.58 73.177C68.5725 73.3455 68.4096 73.4547 68.362 73.1912C68.2751 72.7196 68.2225 72.2441 68.2041 71.7646C68.0638 67.821 67.8424 63.8822 67.54 59.9481C66.9737 52.5681 67.0389 45.0742 67.8608 37.7132C67.9485 36.9417 68.0913 36.2059 68.1339 35.2682C68.1389 35.1448 68.3119 34.9003 68.3344 34.7057C68.5315 33.082 68.8448 31.4797 69.2741 29.8988C69.3743 29.5261 69.7051 27.9951 68.6401 28.8306C68.4914 28.9462 68.3444 29.1068 68.1991 29.3125C66.6956 31.4378 65.5454 33.6604 64.7485 35.9804C61.5886 45.1953 61.2178 55.4403 62.8892 64.9709C63.676 69.4668 64.8939 73.9105 65.598 78.4063C65.6114 78.4902 65.5863 78.5021 65.5228 78.4419C65.3975 78.3233 65.3157 78.1975 65.2773 78.0645C63.879 73.1034 61.9695 68.1747 59.5489 63.2785C57.3011 58.7304 54.4795 54.4813 50.6029 51.1628C49.4678 50.192 47.418 48.6016 45.927 48.9007C45.2036 49.0447 44.9272 49.5139 45.0976 50.3083C45.1644 50.628 45.288 50.9263 45.4684 51.2032C49.3625 57.2024 53.2282 63.0965 57.0655 68.8852C58.5206 71.077 59.8496 73.3344 61.0524 75.6575C61.1852 75.9163 60.9396 75.7928 60.882 75.705C57.5893 70.7882 53.8321 66.5811 49.6106 63.0838C48.1422 61.8684 46.3923 60.8509 44.3608 60.0312C41.7873 58.9938 36.4924 58.2342 35.6354 61.7901C35.4776 62.4429 35.7231 63.6298 36.0664 64.2374C38.64 68.8188 42.9275 72.5669 47.3303 75.5673C50.4459 77.691 53.6501 79.6897 56.9428 81.5634C57.1858 81.7011 56.9503 81.7771 56.8074 81.713C51.7556 79.4176 45.7641 77.9055 40.0633 78.6129C37.0613 78.9879 33.7435 80.1297 32.6134 83.0114C30.5886 88.1767 40.141 89.703 43.5113 89.9261C46.7356 90.1398 49.7752 90.0693 52.6302 89.7149C56.4917 89.2354 60.3482 87.7447 63.874 86.1258C64.2047 85.9738 64.2941 86.0569 64.1421 86.375C62.4782 89.8525 60.5286 93.0073 57.6269 95.6991Z" fill="white"/>
<path d="M66.2061 99.1837C66.108 99.1312 66.0264 99.0569 65.9696 98.9684C65.9128 98.88 65.8829 98.7807 65.8828 98.6805L65.8953 86.9162C65.8953 86.4193 66.1534 86.2207 66.6697 86.3204C67.4197 86.466 68.2383 86.7334 69.1254 87.1227C69.4645 87.2715 69.6341 87.5223 69.6341 87.8752V100.772C69.634 100.797 69.6267 100.823 69.6129 100.845C69.5991 100.867 69.5793 100.885 69.5555 100.898C69.5317 100.911 69.5046 100.917 69.4771 100.917C69.4496 100.917 69.4225 100.91 69.3985 100.898L66.2061 99.1837Z" fill="white"/>
<path d="M71.9995 164.4H66.048C56.9284 163.221 50.0749 158.954 45.4875 151.599C43.5212 148.448 42.3735 144.923 42.0444 141.024C41.0371 129.117 48.269 118.419 60.034 114.443C60.0516 114.436 60.0676 114.427 60.0808 114.414C60.0939 114.401 60.1039 114.386 60.1099 114.369C60.1159 114.352 60.1178 114.334 60.1155 114.317C60.1132 114.299 60.1068 114.282 60.0966 114.267C56.7287 109.235 55.987 103.379 57.5457 97.6388C57.7077 97.0438 57.8689 96.6244 58.0293 96.3807C58.3417 95.9092 58.6883 95.8854 59.0692 96.3095C61.256 98.7387 63.766 100.648 66.5993 102.037C69.5763 103.496 72.5624 104.939 75.5578 106.365C88.2374 112.404 96.6045 123.211 96.9002 136.922C96.9336 138.47 96.8 139.964 96.4993 141.404C95.4142 146.604 93.625 151.212 90.0692 155.216C85.3532 160.526 79.3299 163.587 71.9995 164.4ZM68.1204 121.25C67.4355 121.459 66.728 121.512 65.9979 121.407C65.9538 121.401 65.9089 121.404 65.8658 121.415C65.8227 121.426 65.7824 121.446 65.7474 121.473C65.7124 121.5 65.6834 121.533 65.6623 121.571C65.6412 121.609 65.6283 121.651 65.6246 121.694L65.3414 124.704C65.3349 124.773 65.2955 124.843 65.2311 124.899L63.6399 126.273C63.5711 126.332 63.4971 126.371 63.4269 126.385C62.2416 126.62 61.5651 125.537 60.4926 125.732C59.2697 125.953 59.0216 127.382 59.1795 128.367C59.2897 129.058 59.192 129.518 59.1269 130.162C59.1188 130.24 59.0864 130.313 59.0341 130.37C58.6466 130.787 58.1721 131.094 57.6108 131.294C57.1648 131.454 57.0345 131.742 57.2199 132.16C58.0318 133.979 61.6678 135.702 63.7978 136.464C64.0718 136.56 64.3198 136.52 64.542 136.343C65.8225 135.32 67.4864 135.146 69.4284 135.175C70.7741 135.194 72.24 135.023 73.2424 134.076C75.1092 132.315 75.9412 129.343 78.3217 128.474C78.4162 128.439 78.4974 128.379 78.5546 128.301C78.6119 128.223 78.6425 128.131 78.6425 128.037L78.6475 125.17C78.6492 124.859 78.5322 124.586 78.2967 124.351C75.9738 122.012 71.5835 122.611 69.456 119.933C69.4345 119.906 69.4071 119.884 69.3759 119.868C69.3446 119.853 69.3102 119.843 69.2749 119.841C69.2397 119.839 69.2044 119.845 69.1717 119.857C69.1389 119.869 69.1094 119.888 69.0851 119.912C68.9849 120.009 67.8673 121.08 68.1154 121.201C68.1605 121.221 68.1622 121.238 68.1204 121.25ZM50.1709 126.686C51.469 127.194 52.0578 126.599 53.1128 126.055C53.1497 126.036 53.1814 126.01 53.2056 125.981C53.2299 125.951 53.2461 125.918 53.2531 125.884L53.6816 123.821C53.7501 123.486 53.8971 123.239 54.1227 123.081L56.19 121.621C56.2024 121.612 56.2127 121.601 56.22 121.588C56.2274 121.575 56.2316 121.561 56.2323 121.547C56.233 121.533 56.2303 121.519 56.2242 121.506C56.2182 121.493 56.209 121.482 56.1975 121.474C55.9219 121.269 55.5969 121.174 55.2227 121.186C55.1463 121.189 55.0689 121.219 55.0022 121.269C54.5395 121.633 54.065 121.985 53.5789 122.323C52.6392 122.976 51.7296 122.682 50.9552 123.724C50.439 124.419 50.0598 125.177 49.8176 125.998C49.7207 126.327 49.8385 126.557 50.1709 126.686ZM86.6262 127.012C87.4456 126.228 88.0896 125.58 89.3099 125.094C89.3432 125.08 89.3705 125.057 89.3867 125.028C89.4029 124.998 89.4067 124.965 89.3976 124.935C89.3141 124.642 89.1479 124.38 88.899 124.149C88.873 124.124 88.8403 124.105 88.8031 124.093C88.766 124.081 88.7252 124.075 88.6835 124.078C87.469 124.139 86.495 123.729 85.7616 122.846C85.613 122.667 85.5236 122.676 85.4935 122.874C85.2246 124.643 84.553 126.261 83.4788 127.728C83.3886 127.852 83.422 127.905 83.579 127.887C84.4536 127.79 85.9746 127.633 86.6262 127.012ZM93.1339 141.539C91.8935 139.573 93.3795 135.483 93.8681 133.378C93.9333 133.098 93.828 132.899 93.5524 132.782C90.2973 131.41 90.0216 135.089 89.8161 136.912C89.8064 137 89.7732 137.083 89.7201 137.152C89.667 137.22 89.5962 137.272 89.5154 137.302L86.4984 138.398C86.3866 138.44 86.2922 138.513 86.2301 138.606C86.1679 138.698 86.1415 138.806 86.1551 138.911C86.3079 140.041 86.2653 140.57 85.4584 141.482C84.7919 142.232 84.2205 143.025 83.2633 143.464C82.1524 143.972 81.013 144.42 79.8453 144.808C79.8135 144.818 79.7845 144.836 79.7604 144.858C79.7363 144.881 79.7176 144.908 79.7057 144.937C79.6938 144.967 79.6889 144.999 79.6914 145.031C79.6938 145.063 79.7036 145.093 79.72 145.121L81.652 148.352C81.7907 148.584 82.0204 148.712 82.3411 148.734L84.6616 148.886C84.7003 148.889 84.7388 148.882 84.7731 148.868C84.8074 148.853 84.8364 148.831 84.857 148.803C85.4284 148.032 86.12 147.37 86.9319 146.818C86.9651 146.796 87.0025 146.78 87.0417 146.772C87.0809 146.763 87.1212 146.763 87.1599 146.771L88.8088 147.07C89.0978 147.124 89.3433 147.059 89.5455 146.875C89.9899 146.475 90.4025 146.025 90.7834 145.527C91.6254 144.425 93.0512 144.216 93.9458 143.132C93.9697 143.102 93.9847 143.068 93.9891 143.032C93.9935 142.997 93.9872 142.961 93.9708 142.93C93.8522 142.702 93.5732 142.238 93.1339 141.539ZM49.5244 140.119C50.9903 139.991 50.9578 138.717 50.835 137.679C50.7949 137.348 50.9235 137.094 51.2209 136.917C51.8097 136.566 53.2281 135.847 53.5212 135.336C53.9999 134.501 52.9374 134.724 52.5314 134.816C51.4857 135.052 50.3455 135.188 49.1109 135.225C49.0566 135.227 49.0044 135.246 48.9627 135.279C48.921 135.312 48.892 135.357 48.8804 135.407C48.6649 136.364 47.3243 140.309 49.5244 140.119ZM67.3937 140.886C67.1247 140.793 66.8357 140.748 66.5267 140.751C66.4932 140.751 66.4611 140.763 66.4372 140.786C66.4133 140.809 66.3995 140.84 66.3989 140.872C66.3705 141.888 66.0606 142.814 65.4692 143.652C65.0816 144.201 65.2478 144.449 65.9679 144.397L68.3184 144.226C68.4063 144.22 68.4845 144.192 68.5414 144.148C69.6556 143.249 70.6438 142.237 71.5058 141.112C71.5319 141.078 71.5511 141.042 71.5623 141.005C71.5735 140.969 71.5764 140.933 71.571 140.9L71.2978 139.26C71.2869 139.195 71.2531 139.133 71.2007 139.084C71.1484 139.035 71.08 139 71.0046 138.985C70.0374 138.79 69.0902 140.131 68.5389 140.753C68.3016 141.022 67.9199 141.067 67.3937 140.886ZM52.8271 141.321C52.4938 142.614 54.2931 143.303 55.2453 143.813C55.278 143.83 55.3052 143.856 55.3242 143.887C55.3431 143.917 55.3531 143.953 55.353 143.989L55.3505 151.701C55.3505 151.732 55.3637 151.763 55.3872 151.785C55.4107 151.807 55.4426 151.82 55.4758 151.82L57.3778 151.817C57.4181 151.817 57.4581 151.825 57.4951 151.84C57.5322 151.855 57.5656 151.877 57.5933 151.905C57.621 151.933 57.6424 151.966 57.6562 152.002C57.67 152.038 57.6759 152.076 57.6735 152.114C57.6267 152.807 57.4337 153.459 57.0946 154.07C56.9125 154.399 56.9994 154.517 57.3552 154.424L59.8235 153.778C59.9352 153.749 60.0315 153.683 60.0922 153.595C60.1529 153.506 60.1734 153.402 60.1492 153.303L59.8962 152.29C59.8675 152.175 59.8796 152.055 59.9299 151.957C59.9802 151.858 60.065 151.787 60.1668 151.758C61.2527 151.445 62.3277 151.114 63.3918 150.766C64.9179 150.267 65.8651 149.633 65.6496 148.026C65.6473 148.01 65.6418 147.994 65.6334 147.98C65.625 147.966 65.614 147.953 65.6009 147.943C65.5878 147.933 65.5729 147.926 65.5572 147.922C65.5415 147.918 65.5252 147.917 65.5093 147.92L63.1989 148.276C62.8898 148.325 62.6935 148.212 62.61 147.939L62.2742 146.832C62.2657 146.805 62.2466 146.779 62.2185 146.757C62.1905 146.734 62.1545 146.715 62.1138 146.702L61.4498 146.486C61.4222 146.477 61.3978 146.455 61.3803 146.424C61.3627 146.392 61.3528 146.352 61.3521 146.31L61.3019 144.057C61.3013 144.023 61.2893 143.989 61.2671 143.96C61.2449 143.93 61.2136 143.905 61.1767 143.889C58.9339 142.866 56.1223 142.65 54.035 140.967C53.6064 140.62 52.97 140.77 52.8271 141.321ZM84.7568 152.947L87.3729 152.964C87.4083 152.964 87.4435 152.952 87.474 152.93C87.5044 152.908 87.5286 152.877 87.5433 152.84C87.849 152.051 87.9835 151.229 87.9468 150.374C87.9456 150.345 87.9369 150.317 87.9214 150.292C87.9058 150.267 87.884 150.246 87.8577 150.231C87.8315 150.216 87.8016 150.208 87.7708 150.206C87.74 150.204 87.7092 150.21 87.6811 150.222L84.1704 151.727C84.1342 151.743 84.102 151.765 84.076 151.793C84.0501 151.821 84.031 151.853 84.0201 151.888C83.5039 153.519 82.1607 154.858 80.9905 156.171C80.8652 156.312 80.8978 156.361 81.0882 156.32C82.8657 155.923 84.0017 154.856 84.4962 153.12C84.5097 153.071 84.5427 153.027 84.5898 152.996C84.637 152.964 84.6958 152.947 84.7568 152.947ZM69.1829 156.51L68.5364 156.631C68.5029 156.637 68.4727 156.655 68.4508 156.682C68.4289 156.709 68.4166 156.743 68.4161 156.778C68.4111 157.093 68.2707 157.327 67.9951 157.479C67.9613 157.497 67.923 157.509 67.8828 157.512C67.8426 157.515 67.8014 157.51 67.7621 157.498L64.8502 156.584C64.8048 156.569 64.7566 156.563 64.7089 156.567C64.6611 156.571 64.6147 156.584 64.5728 156.605C64.5308 156.627 64.4942 156.656 64.4651 156.692C64.4361 156.727 64.4154 156.768 64.4042 156.812C64.2923 157.245 64.0383 157.61 63.6424 157.906C63.5756 157.955 63.5263 158.015 63.4946 158.086L62.4672 160.327C62.4316 160.404 62.4236 160.482 62.4446 160.548C62.5649 160.913 62.8998 161.122 63.4495 161.175C67.4171 161.551 71.0238 161.536 74.2698 161.129C74.811 161.061 75.2245 160.955 75.5102 160.809C75.5435 160.792 75.5721 160.767 75.5935 160.736C75.6149 160.705 75.6284 160.669 75.633 160.631C75.6981 160.066 75.6597 159.557 75.5177 159.105C75.4291 158.82 75.2287 158.681 74.9163 158.689C74.2898 158.702 73.7511 158.57 73.3 158.293C73.2683 158.274 73.2435 158.246 73.2287 158.214C73.214 158.181 73.21 158.145 73.2173 158.11L73.5957 156.325C73.6892 155.883 73.574 155.55 73.2499 155.323L71.9243 154.395C71.8976 154.376 71.8753 154.352 71.859 154.325C71.8427 154.298 71.8329 154.268 71.8303 154.237C71.8276 154.207 71.8322 154.177 71.8437 154.15C71.8552 154.122 71.8733 154.098 71.8967 154.079C75.2571 151.34 68.1354 147.967 68.6191 153.65C68.6256 153.722 68.6599 153.795 68.7168 153.856L69.2606 154.447C69.2915 154.48 69.3158 154.516 69.3322 154.552C69.3485 154.588 69.3565 154.623 69.3558 154.656L69.3232 156.375C69.3229 156.406 69.3088 156.436 69.2832 156.461C69.2576 156.485 69.2221 156.503 69.1829 156.51Z" fill="white"/>
</svg>
